<?xml version="1.0" encoding="UTF-8"?>
<svg width="77px" height="109px" viewBox="0 0 77 109" version="1.1" xmlns="http://www.w3.org/2000/svg" xmlns:xlink="http://www.w3.org/1999/xlink">
    <!-- Generator: Sketch 50.2 (55047) - http://www.bohemiancoding.com/sketch -->
    <title>Combined Shape</title>
    <desc>Created with Sketch.</desc>
    <defs></defs>
    <g id="Page-1" stroke="none" stroke-width="1" fill="none" fill-rule="evenodd">
        <path d="M76.4140488,97.7079238 L28.6540508,96.6740245 L33.273258,88.2103344 L56.2158916,88.2103344 C56.9571929,88.2103344 57.959021,88.1906235 58.2229757,87.3404837 C58.4355106,86.655744 58.0678594,86.2246752 57.7387731,85.659058 C57.5408071,85.3179737 30.1863593,37.713573 29.0988316,35.8221833 L21.3798708,22.3904887 L21.2830303,22.2216605 L31.9654825,22.2216605 L37.3585568,31.6057642 L76.5901135,97.703191 L76.5908111,97.7043663 L76.5952509,97.7118464 L76.5859424,97.7116449 L69.1839515,108.777376 L7.53510424,108.777376 L31.7889414,68.3126067 L37.0277565,77.3873349 C37.0277565,77.3873349 26.3264504,95.8941584 25.9450872,96.6868795 C25.784829,97.0176798 25.4951645,97.4718876 25.5354433,97.8472517 C25.583435,98.2954605 25.9245193,98.6871076 26.3007405,98.9073555 C26.455376,98.9919084 26.6257182,99.0438278 26.801226,99.0599007 C27.3059965,99.1198904 27.9196055,99.006767 28.3823832,98.999054 L76.4140488,97.7079238 Z M0.198363508,10.7190634 L7.53510424,0.796766456 L69.082826,0.796766456 L76.5858239,10.794479 L52.091171,53.4385882 L46.213894,42.9086813 L68.2558251,2.32050492 L44.9078325,40.6822063 L39.6484495,31.026435 C39.6484495,31.026435 49.6761569,13.0072421 50.1295077,12.1879541 C50.3163328,11.8511548 50.5485786,11.4989296 50.667701,11.1347064 C50.7495045,10.9055479 50.7946235,10.6649133 50.8013924,10.4216859 C50.8031064,10.2237199 50.8262452,9.993188 50.7225488,9.81493288 C50.4483101,9.34272821 49.7361466,9.4875605 49.2930798,9.49955844 L48.0761458,9.53041028 L2.24829738,10.7096365 L48.0084432,11.7328894 L43.4295148,19.6515303 L19.313654,19.6515303 C19.2168135,19.6515303 19.0274174,19.7406578 18.9382899,19.7620827 C18.5226469,19.8666362 18.1301429,20.2385724 18.0135914,20.6542153 C17.8473343,21.2472564 18.5303599,21.925997 18.8080265,22.3973447 L19.318796,23.2577684 L27.6985006,37.3810586 L34.8098514,49.3661444 C35.3686127,50.3071257 55.4351685,85.6393471 55.4351685,85.6393471 L44.7047245,85.6393471 L39.6604474,76.8148617 L0.198363508,10.7190634 Z M24.6278847,54.9751816 L30.4837368,65.6353519 L7.52767436,108.777373 L0.132374834,97.7118464 L24.6278847,54.9751816 Z" id="Combined-Shape" fill="#282828" fill-rule="nonzero"></path>
    </g>
</svg>